<?xml version="1.0" encoding="utf-8"?>
<!-- Generator: Adobe Illustrator 24.1.0, SVG Export Plug-In . SVG Version: 6.00 Build 0)  -->
<svg version="1.1" id="Layer_1" xmlns="http://www.w3.org/2000/svg" xmlns:xlink="http://www.w3.org/1999/xlink" x="0px" y="0px"
	 viewBox="0 0 843 787" style="enable-background:new 0 0 843 787;" xml:space="preserve">
<style type="text/css">
	.st0{fill-rule:evenodd;clip-rule:evenodd;}
</style>
<path class="st0" d="M57.2,0c0.6,1,1.2,2,1.8,3c64.6,115.7,10.2,113.5-38,207l-1,2c-47.7,92.5,73.5,142.2,80.5,233.1
	c0.5,6.4,1,13,1.5,19.9c6.8,94,77.9,77.8,112,112c44.4,44.4,23,125,112,108.1c22.4-4.2,54-14,101.2-8.9
	c71.1,7.6,157.4,16.9,188.8-47.7c22.1-45.5,49.1-55.6,78.6-66.6c0.2-0.1,0.4-0.2,0.6-0.2c27.4-10.2,42.1-34.9,57.4-58.5
	C832,380,805.7,172.5,795,102C785,36,814,0,814,0H57.2z"/>
</svg>
