<svg width="21" height="20" viewBox="0 0 21 20" fill="none" xmlns="http://www.w3.org/2000/svg">
<path d="M12.5996 20C15.6465 20 18.498 18.6328 20.334 16.3281C21.4668 14.9609 20.2559 12.9688 18.5371 13.2812C15.334 13.9062 12.3652 11.4453 12.3652 8.20312C12.3652 6.28906 13.3809 4.57031 14.9824 3.67188C16.5059 2.8125 16.1152 0.507812 14.3965 0.195312C13.9277 0.078125 13.1074 0.0390625 12.5996 0C7.05273 0 2.59961 4.49219 2.59961 10C2.59961 15.5469 7.05273 20 12.5996 20ZM12.5996 1.875C13.1074 1.875 13.5762 1.95312 14.084 2.03125C11.9355 3.24219 10.4902 5.54688 10.4902 8.20312C10.4902 12.6172 14.5527 15.9766 18.8887 15.1172C17.4043 16.9531 15.1387 18.125 12.5996 18.125C8.10742 18.125 4.47461 14.4922 4.47461 10C4.47461 5.54688 8.10742 1.875 12.5996 1.875Z" fill="#FF842D"/>
</svg>
