<svg width="24" height="24" viewBox="0 0 24 24" fill="none" xmlns="http://www.w3.org/2000/svg">
  <path fill-rule="evenodd" clip-rule="evenodd" d="M12 17.2174C14.8815 17.2174 17.2174 14.8815 17.2174 12C17.2174 9.11851 14.8815 6.78261 12 6.78261C9.11851 6.78261 6.78261 9.11851 6.78261 12C6.78261 14.8815 9.11851 17.2174 12 17.2174ZM12 19.3043C16.0341 19.3043 19.3043 16.0341 19.3043 12C19.3043 7.96592 16.0341 4.69565 12 4.69565C7.96592 4.69565 4.69565 7.96592 4.69565 12C4.69565 16.0341 7.96592 19.3043 12 19.3043Z" fill="#FF842D"/>
  <path fill-rule="evenodd" clip-rule="evenodd" d="M10.9565 1.04348C10.9565 0.467181 11.4237 0 12 0C12.5763 0 13.0435 0.467181 13.0435 1.04348V2.08696C13.0435 2.66325 12.5763 3.13043 12 3.13043C11.4237 3.13043 10.9565 2.66325 10.9565 2.08696V1.04348Z" fill="#FF842D"/>
  <path fill-rule="evenodd" clip-rule="evenodd" d="M10.9565 21.913C10.9565 21.3367 11.4237 20.8696 12 20.8696C12.5763 20.8696 13.0435 21.3367 13.0435 21.913V22.9565C13.0435 23.5328 12.5763 24 12 24C11.4237 24 10.9565 23.5328 10.9565 22.9565V21.913Z" fill="#FF842D"/>
  <path fill-rule="evenodd" clip-rule="evenodd" d="M22.9565 10.9565C23.5328 10.9565 24 11.4237 24 12C24 12.5763 23.5328 13.0435 22.9565 13.0435H21.913C21.3367 13.0435 20.8696 12.5763 20.8696 12C20.8696 11.4237 21.3367 10.9565 21.913 10.9565H22.9565Z" fill="#FF842D"/>
  <path fill-rule="evenodd" clip-rule="evenodd" d="M2.08696 10.9565C2.66325 10.9565 3.13043 11.4237 3.13043 12C3.13043 12.5763 2.66325 13.0435 2.08696 13.0435H1.04348C0.467181 13.0435 -2.51907e-08 12.5763 0 12C2.51907e-08 11.4237 0.467181 10.9565 1.04348 10.9565H2.08696Z" fill="#FF842D"/>
  <path fill-rule="evenodd" clip-rule="evenodd" d="M20.9669 5.61796C21.4659 5.32982 22.1041 5.50082 22.3923 5.9999C22.6804 6.49899 22.5094 7.13717 22.0103 7.42532L21.1066 7.94706C20.6076 8.23521 19.9694 8.06421 19.6812 7.56512C19.3931 7.06603 19.5641 6.42785 20.0632 6.1397L20.9669 5.61796Z" fill="#FF842D"/>
  <path fill-rule="evenodd" clip-rule="evenodd" d="M2.89335 16.0527C3.39244 15.7646 4.03062 15.9356 4.31877 16.4347C4.60692 16.9338 4.43592 17.572 3.93683 17.8601L3.03315 18.3818C2.53407 18.67 1.89588 18.499 1.60774 17.9999C1.31959 17.5008 1.49059 16.8626 1.98968 16.5745L2.89335 16.0527Z" fill="#FF842D"/>
  <path fill-rule="evenodd" clip-rule="evenodd" d="M16.5746 1.98954C16.8628 1.49046 17.5009 1.31945 18 1.6076C18.4991 1.89575 18.6701 2.53393 18.382 3.03302L17.8602 3.9367C17.5721 4.43579 16.9339 4.60679 16.4348 4.31864C15.9357 4.03049 15.7647 3.39231 16.0529 2.89322L16.5746 1.98954Z" fill="#FF842D"/>
  <path fill-rule="evenodd" clip-rule="evenodd" d="M6.13983 20.0632C6.42798 19.5641 7.06616 19.3931 7.56525 19.6812C8.06434 19.9694 8.23534 20.6076 7.94719 21.1066L7.42545 22.0103C7.1373 22.5094 6.49912 22.6804 6.00003 22.3923C5.50094 22.1041 5.32994 21.4659 5.61809 20.9668L6.13983 20.0632Z" fill="#FF842D"/>
  <path fill-rule="evenodd" clip-rule="evenodd" d="M5.61809 3.03302C5.32994 2.53393 5.50094 1.89575 6.00003 1.6076C6.49912 1.31946 7.1373 1.49046 7.42545 1.98954L7.94719 2.89322C8.23534 3.39231 8.06434 4.03049 7.56525 4.31864C7.06616 4.60679 6.42798 4.43579 6.13983 3.9367L5.61809 3.03302Z" fill="#FF842D"/>
  <path fill-rule="evenodd" clip-rule="evenodd" d="M16.0529 21.1066C15.7647 20.6076 15.9357 19.9694 16.4348 19.6812C16.9339 19.3931 17.5721 19.5641 17.8602 20.0632L18.382 20.9668C18.6701 21.4659 18.4991 22.1041 18 22.3923C17.5009 22.6804 16.8628 22.5094 16.5746 22.0103L16.0529 21.1066Z" fill="#FF842D"/>
  <path fill-rule="evenodd" clip-rule="evenodd" d="M1.98967 7.42526C1.49058 7.13711 1.31958 6.49893 1.60773 5.99984C1.89588 5.50075 2.53406 5.32975 3.03315 5.6179L3.93683 6.13964C4.43592 6.42779 4.60692 7.06597 4.31877 7.56506C4.03062 8.06415 3.39244 8.23515 2.89335 7.947L1.98967 7.42526Z" fill="#FF842D"/>
  <path fill-rule="evenodd" clip-rule="evenodd" d="M20.0633 17.86C19.5642 17.5719 19.3932 16.9337 19.6814 16.4346C19.9695 15.9355 20.6077 15.7645 21.1068 16.0527L22.0105 16.5744C22.5095 16.8626 22.6805 17.5008 22.3924 17.9998C22.1042 18.4989 21.4661 18.6699 20.967 18.3818L20.0633 17.86Z" fill="#FF842D"/>
</svg>
